<svg t="1645757051625" class="icon" viewBox="0 0 1194 1024" version="1.1" xmlns="http://www.w3.org/2000/svg" p-id="4171" width="128" height="128">
    <path d="M1189.376 744.704l-0.170667-0.170667-0.170666-0.170666c-58.794667-124.330667-149.845333-188.330667-271.018667-188.330667-121.173333 0-212.309333 64.085333-271.189333 188.330667v0.170666a57.173333 57.173333 0 0 0 0 48.554667c58.88 124.245333 150.016 188.245333 271.189333 188.245333s212.224-64.170667 271.189333-188.416a57.173333 57.173333 0 0 0 0.170667-48.213333z m-271.36 151.296c-82.773333 0-143.189333-40.021333-188.16-127.317333 44.8-87.381333 105.301333-127.317333 188.16-127.317334 82.773333 0 143.189333 39.936 188.16 127.317334-44.8 87.296-105.386667 127.317333-188.16 127.317333zM843.946667 769.365333a74.666667 74.666667 0 1 0 149.333333 0 74.666667 74.666667 0 0 0-149.333333 0zM96 138.666667h938.666667v337.322666h96V85.333333a42.666667 42.666667 0 0 0-42.666667-42.666666H42.666667A42.666667 42.666667 0 0 0 0 85.333333v693.333334a42.666667 42.666667 0 0 0 42.666667 42.666666H512V725.333333H96V138.666667z m785.237333 141.482666l-49.066666-49.066666a10.666667 10.666667 0 0 0-15.104 0L571.989333 476.416 457.216 361.472a10.666667 10.666667 0 0 0-15.104 0L249.770667 553.813333a10.666667 10.666667 0 0 0 0 15.018667l49.066666 49.066667a10.666667 10.666667 0 0 0 15.018667 0l135.68-135.68 114.858667 114.858666a10.666667 10.666667 0 0 0 15.104 0l301.738666-301.994666a10.496 10.496 0 0 0 0-15.018667z" p-id="4172"></path>
</svg>